<?xml version="1.0" standalone="no"?><!DOCTYPE svg PUBLIC "-//W3C//DTD SVG 1.1//EN" "http://www.w3.org/Graphics/SVG/1.1/DTD/svg11.dtd"><svg t="1722012437602" class="icon" viewBox="0 0 1024 1024" version="1.1" xmlns="http://www.w3.org/2000/svg" p-id="45689" xmlns:xlink="http://www.w3.org/1999/xlink" width="200" height="200"><path d="M672 704c194.4 0 352-157.6 352-352S866.4 0 672 0 320 157.6 320 352c0 37.4 5.8 73.6 16.6 107.4L14 782c-9 9-14 21.2-14 34v160c0 26.6 21.4 48 48 48h160c26.6 0 48-21.4 48-48v-80h80c26.6 0 48-21.4 48-48v-80h80c12.8 0 25-5 34-14l66.6-66.6c33.8 10.8 70 16.6 107.4 16.6z m80-512a80 80 0 1 1 0 160 80 80 0 1 1 0-160z" p-id="45690" fill="#ffffff"></path></svg>