<?xml version="1.0" standalone="no"?><!DOCTYPE svg PUBLIC "-//W3C//DTD SVG 1.1//EN" "http://www.w3.org/Graphics/SVG/1.1/DTD/svg11.dtd"><svg t="1722012391408" class="icon" viewBox="0 0 1024 1024" version="1.1" xmlns="http://www.w3.org/2000/svg" p-id="39808" xmlns:xlink="http://www.w3.org/1999/xlink" width="200" height="200"><path d="M320.844595 325.8368v139.63264h382.32064v-139.6736c0-51.36384-18.67776-95.232-56.03328-131.60448-37.31456-36.37248-82.3296-54.55872-135.12704-54.55872-52.75648 0-97.81248 18.18624-135.168 54.55872-37.2736 36.37248-55.99232 80.24064-55.99232 131.64544zM921.195315 485.7856c13.9264 13.55776 20.8896 30.06464 20.8896 49.43872v418.89792c0 19.41504-6.9632 35.88096-20.8896 49.47968a70.0416 70.0416 0 0 1-50.7904 20.35712H153.604915c-19.90656 0-36.864-6.79936-50.7904-20.35712A66.43712 66.43712 0 0 1 81.924915 954.1632V535.26528c0-19.37408 6.9632-35.88096 20.8896-49.43872a70.0416 70.0416 0 0 1 50.7904-20.35712h23.87968v-139.6736c0-89.16992 32.84992-165.80608 98.59072-229.7856C341.775155 31.9488 420.418355 0 512.004915 0c91.58656 0 170.22976 31.98976 235.9296 96.01024 65.7408 63.97952 98.59072 140.61568 98.59072 229.7856v139.6736h23.87968c19.90656 0 36.864 6.7584 50.7904 20.35712z" p-id="39809" fill="#ffffff"></path></svg>