<?xml version="1.0" standalone="no"?><!DOCTYPE svg PUBLIC "-//W3C//DTD SVG 1.1//EN" "http://www.w3.org/Graphics/SVG/1.1/DTD/svg11.dtd"><svg t="1747879192939" class="icon" viewBox="0 0 1024 1024" version="1.1" xmlns="http://www.w3.org/2000/svg" p-id="37073" data-spm-anchor-id="a313x.search_index.0.i0.36733a81JwILdd" xmlns:xlink="http://www.w3.org/1999/xlink" width="200" height="200"><path d="M787.16806 952.268282 236.83194 952.268282c-30.395264 0-55.033407-24.638143-55.033407-55.033407L181.798533 429.449889c0-30.395264 24.638143-55.033407 55.033407-55.033407l82.550111 0 0-110.066815c0-106.379842 86.238107-192.617949 192.617949-192.617949s192.617949 86.238107 192.617949 192.617949l0 110.066815 82.550111 0c30.395264 0 55.033407 24.638143 55.033407 55.033407l0 467.784986C842.201467 927.630139 817.562301 952.268282 787.16806 952.268282zM484.483296 672.046113l0 115.121947 55.033407 0 0-115.121947c31.990598-11.373025 55.033407-41.605583 55.033407-77.496002 0-45.592384-36.957727-82.550111-82.550111-82.550111s-82.550111 36.957727-82.550111 82.550111C429.449889 630.440529 452.491675 660.673088 484.483296 672.046113zM622.066815 264.348644c0-60.787458-49.279357-110.066815-110.066815-110.066815s-110.066815 49.279357-110.066815 110.066815l0 110.066815 220.134653 0L622.067838 264.348644z" fill="#ffffff" p-id="37074"></path></svg>