<?xml version="1.0" standalone="no"?><!DOCTYPE svg PUBLIC "-//W3C//DTD SVG 1.1//EN" "http://www.w3.org/Graphics/SVG/1.1/DTD/svg11.dtd"><svg t="1722010789794" class="icon" viewBox="0 0 1024 1024" version="1.1" xmlns="http://www.w3.org/2000/svg" p-id="5599" xmlns:xlink="http://www.w3.org/1999/xlink" width="200" height="200"><path d="M811.776 460.288h-177.444571a32.146286 32.146286 0 0 1-27.867429-46.116571l160.914286-320.109715a34.962286 34.962286 0 0 0-31.305143-50.761143h-293.229714a34.413714 34.413714 0 0 0-32.109715 21.467429l-226.742857 535.954286a15.213714 15.213714 0 0 0 14.043429 21.248h271.177143a30.793143 30.793143 0 0 1 23.478857 10.971428 32.585143 32.585143 0 0 1 7.314285 25.088l-45.348571 327.936a17.517714 17.517714 0 0 0 31.488 12.653715l353.609143-482.998858a34.925714 34.925714 0 0 0-27.977143-55.332571z" fill="#ffffff" p-id="5600"></path></svg>