<?xml version="1.0" standalone="no"?><!DOCTYPE svg PUBLIC "-//W3C//DTD SVG 1.1//EN" "http://www.w3.org/Graphics/SVG/1.1/DTD/svg11.dtd"><svg t="1735491825592" class="icon" viewBox="0 0 1024 1024" version="1.1" xmlns="http://www.w3.org/2000/svg" p-id="39173" xmlns:xlink="http://www.w3.org/1999/xlink" width="200" height="200"><path d="M864 672H0V512c0-87.466667 72.533333-160 160-160h704c87.466667 0 160 72.533333 160 160s-72.533333 160-160 160z" fill="#FF3C15" p-id="39174"></path><path d="M179.2 601.6h-14.933333v-102.4l-32 32c-2.133333-4.266667-6.4-8.533333-8.533334-14.933333 25.6-21.333333 44.8-44.8 59.733334-70.4H128v-14.933334h61.866667c4.266667-8.533333 6.4-17.066667 10.666666-25.6l17.066667 4.266667c-2.133333 6.4-6.4 14.933333-8.533333 21.333333H320v17.066667H200.533333c-4.266667 8.533333-8.533333 14.933333-12.8 23.466667h108.8V576c0 17.066667-8.533333 23.466667-23.466666 23.466667h-32c0-4.266667-2.133333-10.666667-2.133334-17.066667 12.8 0 21.333333 2.133333 29.866667 2.133333 8.533333 0 12.8-4.266667 12.8-12.8v-14.933333H179.2v44.8z m100.266667-117.333333H179.2v23.466666h100.266667v-23.466666z m-100.266667 59.733333h100.266667v-23.466667H179.2v23.466667zM328.533333 477.866667h32c-6.4-8.533333-10.666667-17.066667-14.933333-23.466667l10.666667-6.4c4.266667 4.266667 10.666667 12.8 17.066666 21.333333l-10.666666 8.533334h25.6c6.4-10.666667 14.933333-21.333333 19.2-29.866667l14.933333 8.533333c-6.4 8.533333-12.8 14.933333-19.2 23.466667h29.866667v10.666667h-104.533334v-12.8z m19.2 57.6l12.8 6.4c-6.4 14.933333-14.933333 27.733333-21.333333 40.533333l-12.8-6.4c8.533333-10.666667 14.933333-23.466667 21.333333-40.533333z m-14.933333-21.333334h40.533333v-19.2h14.933334v19.2H426.666667v12.8h-38.4v51.2c0 12.8-6.4 21.333333-21.333334 21.333334h-19.2c0-4.266667-2.133333-8.533333-2.133333-14.933334 8.533333 0 12.8 2.133333 19.2 2.133334 6.4 0 8.533333-4.266667 8.533333-10.666667v-46.933333h-40.533333v-14.933334z m2.133333-81.066666h42.666667c-2.133333-6.4-6.4-10.666667-10.666667-17.066667l12.8-6.4c4.266667 6.4 8.533333 12.8 10.666667 19.2l-6.4 4.266667h42.666667v12.8h-93.866667v-12.8z m70.4 102.4c6.4 10.666667 14.933333 19.2 19.2 27.733333l-12.8 8.533333c-6.4-10.666667-12.8-19.2-19.2-27.733333l12.8-8.533333z m34.133334-108.8c27.733333 0 53.333333-2.133333 76.8-8.533334l4.266666 14.933334c-25.6 4.266667-49.066667 6.4-66.133333 6.4v44.8h72.533333v12.8h-27.733333v102.4h-14.933333v-102.4h-29.866667v10.666666c0 40.533333-10.666667 70.4-29.866667 93.866667-2.133333-4.266667-6.4-8.533333-10.666666-12.8 17.066667-19.2 25.6-44.8 25.6-81.066667V426.666667zM595.2 599.466667h-14.933333v-74.666667h-21.333334c0 32-6.4 57.6-17.066666 76.8-2.133333-4.266667-6.4-6.4-10.666667-10.666667 8.533333-17.066667 14.933333-40.533333 14.933333-74.666666v-100.266667h14.933334V469.333333h21.333333v-57.6h14.933333V469.333333h17.066667v12.8h-51.2v32h36.266667v85.333334z m25.6-174.933334c38.4 0 72.533333-4.266667 100.266667-8.533333l6.4 14.933333c-38.4 4.266667-68.266667 6.4-91.733334 6.4V469.333333h83.2v12.8c-4.266667 32-14.933333 55.466667-29.866666 74.666667 10.666667 10.666667 23.466667 19.2 42.666666 27.733333-4.266667 6.4-8.533333 10.666667-12.8 14.933334-17.066667-10.666667-29.866667-21.333333-40.533333-29.866667-10.666667 10.666667-25.6 21.333333-44.8 34.133333-2.133333-4.266667-6.4-8.533333-10.666667-14.933333 19.2-8.533333 36.266667-19.2 46.933334-29.866667-12.8-19.2-21.333333-42.666667-25.6-74.666666h-8.533334v29.866666c0 36.266667-8.533333 66.133333-25.6 89.6-2.133333-4.266667-6.4-8.533333-10.666666-12.8 8.533333-12.8 14.933333-25.6 17.066666-38.4 2.133333-12.8 4.266667-27.733333 4.266667-49.066666v-78.933334z m83.2 59.733334h-44.8c4.266667 25.6 10.666667 46.933333 21.333333 64 10.666667-17.066667 19.2-38.4 23.466667-64zM934.4 550.4l-12.8 12.8c-32-23.466667-57.6-55.466667-76.8-93.866667v76.8h44.8v12.8h-44.8v40.533334h-14.933333v-40.533334h-46.933334v-12.8h46.933334V469.333333c-17.066667 34.133333-42.666667 66.133333-78.933334 96l-12.8-12.8c38.4-29.866667 66.133333-61.866667 85.333334-96h-81.066667v-14.933333h87.466667V405.333333h14.933333v36.266667h87.466667v14.933333h-81.066667c19.2 40.533333 46.933333 72.533333 83.2 93.866667z" fill="#FFFFFF" p-id="39175"></path></svg>