<?xml version="1.0" standalone="no"?><!DOCTYPE svg PUBLIC "-//W3C//DTD SVG 1.1//EN" "http://www.w3.org/Graphics/SVG/1.1/DTD/svg11.dtd"><svg t="1736092028254" class="icon" viewBox="0 0 1024 1024" version="1.1" xmlns="http://www.w3.org/2000/svg" p-id="40800" xmlns:xlink="http://www.w3.org/1999/xlink" width="200" height="200"><path d="M512 512m-512 0a512 512 0 1 0 1024 0 512 512 0 1 0-1024 0Z" fill="#EBF9F0" p-id="40801"></path><path d="M588.401778 745.386667c9.699556 0 17.578667 8.248889 17.578666 18.403555 0 10.183111-7.879111 18.432-17.578666 18.432H482.986667c-9.671111 0-17.550222-8.248889-17.550223-18.432 0-10.154667 7.850667-18.403556 17.550223-18.403555h105.415111zM535.694222 241.777778c109.966222 0 199.111111 93.496889 199.111111 208.782222 0 79.815111-42.666667 149.162667-105.415111 184.32v49.066667c0 13.568-10.467556 24.576-23.409778 24.576H553.244444v-131.697778l61.127112-64.085333 1.194666-1.393778a19.086222 19.086222 0 0 0-1.194666-24.661334 17.123556 17.123556 0 0 0-12.430223-5.404444 17.152 17.152 0 0 0-12.430222 5.404444l-53.845333 56.462223-53.816889-56.462223-1.336889-1.251555a16.981333 16.981333 0 0 0-24.234667 1.848889 19.057778 19.057778 0 0 0 0.711111 25.457778l61.127112 64.085333v131.697778h-52.707556c-12.942222 0-23.438222-11.008-23.438222-24.576V634.88c-62.72-35.157333-105.415111-104.504889-105.415111-184.32 0-115.285333 89.144889-208.782222 199.111111-208.782222z" fill="#00B042" p-id="40802"></path></svg>