<?xml version="1.0" standalone="no"?><!DOCTYPE svg PUBLIC "-//W3C//DTD SVG 1.1//EN" "http://www.w3.org/Graphics/SVG/1.1/DTD/svg11.dtd"><svg t="1736237528728" class="icon" viewBox="0 0 1024 1024" version="1.1" xmlns="http://www.w3.org/2000/svg" p-id="92839" xmlns:xlink="http://www.w3.org/1999/xlink" width="200" height="200"><path d="M240.6 329.5h541.9v408.7H240.6z" fill="#DBE2EE" p-id="92840"></path><path d="M240.6 291.3h541.9v38.2H240.6z" fill="#305269" p-id="92841"></path><path d="M260.7 310.4c0 10.6-9 19.1-20 19.1-11.1 0-20-8.6-20-19.1 0-10.6 9-19.1 20-19.1s20 8.6 20 19.1z m541.9 0c0 10.6-9 19.1-20 19.1s-20-8.6-20-19.1c0-10.6 9-19.1 20-19.1s20 8.6 20 19.1z m0 0" fill="#305269" p-id="92842"></path><path d="M280.7 367.7h60.2v327.7h-60.2V367.7z m80.4 0h60.2v327.7h-60.2V367.7z m80.3 0h60.2v327.7h-60.2V367.7z m80.2 0h60.2v327.7h-60.2V367.7z m80.3 0h60.2v327.7h-60.2V367.7z m80.2 0h60.2v327.7h-60.2V367.7z m0 0" fill="#FFFFFF" p-id="92843"></path><path d="M280.7 498.9h60.2v196.6h-60.2z" fill="#305269" p-id="92844"></path><path d="M361.1 455.2h60.2v240.3h-60.2z" fill="#FBB03B" p-id="92845"></path><path d="M441.4 542.6h60.2v152.9h-60.2z" fill="#F05F50" p-id="92846"></path><path d="M521.6 477h60.2v218.5h-60.2z" fill="#305269" p-id="92847"></path><path d="M601.9 520.7h60.2v174.7h-60.2z" fill="#F05F50" p-id="92848"></path><path d="M682.1 433.3h60.2v262.2h-60.2z" fill="#FBB03B" p-id="92849"></path></svg>