<?xml version="1.0" standalone="no"?><!DOCTYPE svg PUBLIC "-//W3C//DTD SVG 1.1//EN" "http://www.w3.org/Graphics/SVG/1.1/DTD/svg11.dtd"><svg t="1736235597756" class="icon" viewBox="0 0 1024 1024" version="1.1" xmlns="http://www.w3.org/2000/svg" p-id="53771" xmlns:xlink="http://www.w3.org/1999/xlink" width="200" height="200"><path d="M577.5 899.8c-1.4 0-2.8-0.8-3.5-2l-19.5-35c-1.1-1.9-0.4-4.4 1.5-5.5s4.4-0.4 5.5 1.5l19.5 35c1.1 1.9 0.4 4.4-1.5 5.4-0.6 0.4-1.3 0.6-2 0.6z" fill="#00B7EE" p-id="53772"></path><path d="M550.2 892c-2.2 0-4-1.7-4.1-3.9 0-1.5 0.8-2.8 2.1-3.6l35-19.5c1.9-1.1 4.4-0.4 5.4 1.6s0.4 4.4-1.6 5.4l-34.9 19.5c-0.5 0.3-1.2 0.5-1.9 0.5z" fill="#00B7EE" p-id="53773"></path><path d="M61 864.5c-1.8 0-3.4-1.2-3.9-3l-6.3-23.4c-0.6-2.1 0.7-4.3 2.8-4.9 2.1-0.6 4.3 0.7 4.9 2.8l6.3 23.5c0.6 2.1-0.7 4.3-2.8 4.9-0.3 0.1-0.6 0.1-1 0.1z" fill="#ACD598" p-id="53774"></path><path d="M46.2 855.9c-2.2 0-4-1.8-4-4 0-1.8 1.2-3.3 3-3.8l23.4-6.3c2.2-0.4 4.3 1.1 4.6 3.2 0.3 1.9-0.8 3.8-2.6 4.5l-23.4 6.3c-0.3 0.1-0.6 0.1-1 0.1z" fill="#ACD598" p-id="53775"></path><path d="M977.8 304.1c-0.8 0-1.7-0.3-2.3-0.8l-24.7-17.8c-1.8-1.3-2.2-3.8-0.9-5.6 1.3-1.8 3.8-2.2 5.6-0.9l24.7 17.8c1.8 1.3 2.2 3.8 0.9 5.6-0.8 1.1-2 1.7-3.3 1.7z" fill="#FFF100" p-id="53776"></path><path d="M956.5 307.6c-0.8 0-1.6-0.3-2.3-0.8-1.8-1.3-2.2-3.8-0.9-5.6l17.7-24.7c1.2-1.8 3.7-2.3 5.6-1 1.8 1.2 2.3 3.7 1 5.6 0 0.1-0.1 0.1-0.1 0.2L959.8 306c-0.8 1-2 1.6-3.3 1.6z" fill="#FFF100" p-id="53777"></path><path d="M950.1 437.2c-2.6 0-5.1-1-7-2.7l-0.3-0.3-0.1-0.1-0.8-0.8v-0.1c-3.3-4.1-3-10 0.8-13.7 4-4.1 10.6-4.1 14.6 0 1.9 1.9 3 4.6 3 7.3 0.2 5.8-4.5 10.4-10.2 10.4z m-2.9-6.1c2.4 1.6 5.5 1 7.1-1.4 1.6-2.4 1-5.5-1.4-7.1-2.1-1.4-4.8-1.1-6.5 0.6-1.9 1.9-2 5-0.3 7l1 0.5 0.1 0.4z" fill="#FF8A8A" p-id="53778"></path><path d="M173.2 935.5c-7.4 0-13.5-6-13.5-13.5 0-7.4 6-13.5 13.5-13.5 7.4 0 13.5 6 13.5 13.5s-6 13.5-13.5 13.5z m0-23.6c-5.6 0-10.1 4.5-10.1 10.1s4.5 10.1 10.1 10.1 10.1-4.5 10.1-10.1-4.5-10.1-10.1-10.1z" fill="#30D9DB" p-id="53779"></path><path d="M268.2 872.8c-5.4 0-9.8-4.4-9.8-9.8s4.4-9.8 9.8-9.8 9.8 4.4 9.8 9.8-4.3 9.8-9.8 9.8z m0-14c-2.3 0-4.2 1.9-4.2 4.2s1.9 4.2 4.2 4.2 4.2-1.9 4.2-4.2-1.8-4.2-4.2-4.2z" fill="#0A94FF" p-id="53780"></path><path d="M954.4 75a6 6 0 1 0 12 0 6 6 0 1 0-12 0z" fill="#A657FF" p-id="53781"></path><path d="M151.5 819.8a6 6 0 1 0 12 0 6 6 0 1 0-12 0z" fill="#FF455C" p-id="53782"></path><path d="M641.7 928.3a8 8 0 1 0 16 0 8 8 0 1 0-16 0z" fill="#F78282" p-id="53783"></path><path d="M938 164a8 8 0 1 0 16 0 8 8 0 1 0-16 0z" fill="#B4DB61" p-id="53784"></path><path d="M500.5 824.9a5 5 0 1 0 10 0 5 5 0 1 0-10 0z" fill="#6AD125" p-id="53785"></path><path d="M385.2 866c-12.7 0-23-10.3-23-23s10.3-23 23-23 23 10.3 23 23c0 6.1-2.4 12-6.7 16.3-4.3 4.3-10.2 6.7-16.3 6.7z m0-38c-8.3 0-15 6.7-15 15s6.7 15 15 15 15-6.7 15-15c0-4-1.6-7.8-4.4-10.6-2.8-2.8-6.6-4.4-10.6-4.4z" fill="#FF8A8A" p-id="53786"></path><path d="M465.2 932.1c-6.1 0-11.1-5-11.1-11.1 0-2.9 1.2-5.7 3.2-7.8l0.1-0.1c2-2 4.9-3.2 7.8-3.2 6.1 0 11.1 5 11.1 11.1 0 6.2-5 11.1-11.1 11.1z m-4.5-15.6c-2.5 2.5-2.5 6.6 0 9.1s6.6 2.5 9.1 0 2.5-6.6 0-9.1a6.42 6.42 0 0 0-4.6-1.9c-1.7 0-3.3 0.7-4.5 1.9z m-1.7-1.7z" fill="#B3D465" p-id="53787"></path><path d="M335.2 946a8 8 0 1 0 16 0 8 8 0 1 0-16 0z" fill="#D3A884" p-id="53788"></path><path d="M921.1 556.8a6 6 0 1 0 12 0 6 6 0 1 0-12 0z" fill="#F2ED62" p-id="53789"></path><path d="M140.2 209h710c22.1 0 40 17.9 40 40v488c0 22.1-17.9 40-40 40h-710c-22.1 0-40-17.9-40-40V249c0-22.1 17.9-40 40-40z" fill="#87FFFE" p-id="53790"></path><path d="M140.2 82h710c22.1 0 40 17.9 40 40v95h-750c-13.4 0-26.8 1.4-40 4v-99c0-22.1 17.9-40 40-40z" fill="#22B4FF" p-id="53791"></path><path d="M123.2 157a20 20 0 1 0 40 0 20 20 0 1 0-40 0zM183.2 157a20 20 0 1 0 40 0 20 20 0 1 0-40 0zM243.2 157a20 20 0 1 0 40 0 20 20 0 1 0-40 0z" fill="#FFFFFF" p-id="53792"></path><path d="M531.2 786h-417c-27.6 0-50-22.4-50-50V387c0-5.5 4.5-10 10-10s10 4.5 10 10v349c0 16.6 13.4 30 30 30h417c5.5 0 10 4.5 10 10s-4.4 10-10 10z m365-269c-5.5 0-10-4.5-10-10V132c0-16.6-13.4-30-30-30h-97c-5.5 0-10-4.5-10-10s4.5-10 10-10h97c27.6 0 50 22.4 50 50v375c0 5.5-4.4 10-10 10z m-822-243c-5.5 0-10-4.5-10-10V132c0-27.6 22.4-50 50-50h499c5.5 0 10 4.5 10 10s-4.5 10-10 10h-499c-16.6 0-30 13.4-30 30v132c0 5.5-4.4 10-10 10zM667.2 93a16 16 0 1 0 32 0 16 16 0 1 0-32 0zM58.2 326a16 16 0 1 0 32 0 16 16 0 1 0-32 0z" fill="#222222" p-id="53793"></path><path d="M218.2 594c-5.5 0-10-4.5-10-10 0-2.2 0.7-4.3 2.1-6.1l158-207c3.4-4.4 9.6-5.2 14-1.9 0.5 0.4 1 0.8 1.4 1.3l145.2 162 266.5-244.7c4-3.8 10.3-3.7 14.1 0.3s3.7 10.3-0.3 14.1c-0.1 0.1-0.2 0.2-0.4 0.3L535 553.9c-4.1 3.7-10.4 3.5-14.1-0.6l-0.1-0.1-143.9-160.5-150.7 197.4c-1.9 2.5-4.8 3.9-8 3.9z" fill="#222222" p-id="53794"></path><path d="M790.8 440c-0.5 0-1 0-1.5-0.1-5.5-0.8-9.2-5.9-8.4-11.4l19.7-132.7-139.7 9.2c-5.5 0.5-10.4-3.5-10.9-9s3.5-10.4 9-10.9h0.5l152-10c5.5-0.4 10.3 3.8 10.6 9.3 0 0.7 0 1.4-0.1 2.1l-21.5 145c-0.6 4.9-4.8 8.5-9.7 8.5zM511.2 701h-353c-5.5 0-10-4.5-10-10V317c0-5.5 4.5-10 10-10s10 4.5 10 10v364h343c5.5 0 10 4.5 10 10s-4.4 10-10 10z" fill="#222222" p-id="53795"></path><path d="M738.2 691h-192c0.5-105.6 86.3-191 192-191v191z" fill="#FFFFFF" p-id="53796"></path><path d="M772.2 924c-106 0-192-86-192-192v-1h192V540c106 0 192 86 192 192s-86 192-192 192z" fill="#FFFFFF" p-id="53797"></path><path d="M728.2 681h-151c0.4-83.5 67.9-151 151-151v151z" fill="#EB6877" p-id="53798"></path><path d="M789.5 907c-90.4 0-173.7-73.1-173.7-163.3v-0.8h173.7V570.5c90.4 0 163.7 83.1 163.7 173.2S879.9 907 789.5 907z" fill="#FFDF00" p-id="53799"></path><path d="M738.2 701h-192c-5.5 0-10-4.5-10-10 0.6-111.2 90.8-201 202-201 5.5 0 10 4.5 10 10v191c0 5.5-4.4 10-10 10z m-181.6-20h171.7V510.3c-92 5-166.2 78.8-171.7 170.7z" fill="#222222" p-id="53800"></path><path d="M768.2 914c-105.3 0-191-85.7-191-191v-0.9c0-5.5 4.5-10 10-10h171V542c0-5.5 4.5-10 10-10 105.3 0 191 85.7 191 191s-85.6 191-191 191zM597.5 732.1c4.7 90 79.5 161.9 170.7 161.9 94.3 0 171-76.7 171-171 0-90.9-71.3-165.5-161-170.7v169.8c0 5.5-4.5 10-10 10H597.5zM885.2 225h-800c-5.5 0-10-4.5-10-10s4.5-10 10-10h800c5.5 0 10 4.5 10 10s-4.4 10-10 10z" fill="#222222" p-id="53801"></path></svg>