<?xml version="1.0" standalone="no"?><!DOCTYPE svg PUBLIC "-//W3C//DTD SVG 1.1//EN" "http://www.w3.org/Graphics/SVG/1.1/DTD/svg11.dtd"><svg t="1736237113733" class="icon" viewBox="0 0 1024 1024" version="1.1" xmlns="http://www.w3.org/2000/svg" p-id="70526" xmlns:xlink="http://www.w3.org/1999/xlink" width="200" height="200"><path d="M492.1 516.6V90.3H491c-234.7 0-425 190.3-425 425v1.3h426.1z" fill="#6665FF" p-id="70527"></path><path d="M492.1 516.6H93.5c0 220.9 179.1 400 400 400 29 0 57.2-3.1 84.4-8.9l-85.8-391.1z" fill="#8080FF" p-id="70528"></path><path d="M492.1 516.6l297.3-268.8c-73.2-81.1-179.2-132.2-297.1-132.2h-0.2v401z" fill="#F57F20" p-id="70529"></path><path d="M873 389.1c-18-53-46.7-101-83.6-141.4L492.1 516.6 873 389.1z" fill="#FFA765" p-id="70530"></path><path d="M594 584.4l-1 0.9 1-0.9zM873 389.1L492.2 516.5l85.7 391.1c180.6-38.6 316.3-198 316.3-390.2 0-47-21.2-128.3-21.2-128.3z" fill="#77DA82" p-id="70531"></path><path d="M492.2 516.6m-250 0a250 250 0 1 0 500 0 250 250 0 1 0-500 0Z" fill="#FFFFFF" p-id="70532"></path><path d="M285.4 309.1c-3.8 0-6.8-3.1-6.8-6.8 0-3.8 3.1-6.8 6.8-6.8 3.8 0 6.8 3.1 6.8 6.8 0 3.8-3.1 6.8-6.8 6.8z m-6.8-22.7c-2.5 0-4.5-2-4.5-4.5s2-4.5 4.5-4.5 4.5 2 4.5 4.5-2 4.5-4.5 4.5z m4.5 36.4c0 5-4.1 9.1-9.1 9.1s-9.1-4.1-9.1-9.1 4.1-9.1 9.1-9.1 9.1 4 9.1 9.1zM249 284.1c-10 0-18.2-8.1-18.2-18.2 0-10 8.1-18.2 18.2-18.2 10 0 18.2 8.1 18.2 18.2s-8.2 18.2-18.2 18.2z m-29.5 50c-7.5 0-13.6-6.1-13.6-13.6s6.1-13.6 13.6-13.6 13.6 6.1 13.6 13.6-6.1 13.6-13.6 13.6zM208.1 300c-8.8 0-15.9-7.1-15.9-15.9s7.1-15.9 15.9-15.9 15.9 7.1 15.9 15.9-7.1 15.9-15.9 15.9z m40.9 25c6.3 0 11.4 5.1 11.4 11.4 0 6.3-5.1 11.4-11.4 11.4-6.3 0-11.4-5.1-11.4-11.4 0-6.3 5.1-11.4 11.4-11.4z m0 0" fill="#FFFFFF" p-id="70533"></path><path d="M792.7 349.9l-3.7 3.7-2.7-2.4-3.3-3.2 5.9-6.3c6.6 2.9 13.4 1.7 18-2.3 4.5-3.9 4.5-11.6 4.5-11.6l-3.6-1.4-7 7-10.1-10.1 7-7.1-1.4-3.6s-7 0-11.7 4.6c-4.3 4.3-5.7 11.4-2.7 17.8l-6.1 5.9-8.8-8.5-0.5-6-8.2-5.3-2.3 2.3-2.3 2.3-2.3 2.3 5.3 8.2 5.6 0.5 9 8.6-23 22.4s-0.7 4.1 2 6.8c2.2 2.2 6.1 1.7 6.1 1.7l22.3-23.9 3.2 3.1 2.4 2.4-4.6 4.7 19.8 19.8c6.8-1.8 10.7-6.6 13-13-6.6-6.1-13.2-12.8-19.8-19.4M757 371.7c-1.1 1.1-2.8 1.1-3.9 0s-1.1-2.8 0-3.9 2.8-1.1 3.9 0c1 1.1 1 2.8 0 3.9m43.2 6l-15-15.1 2.2-2.2L803 376l-2.8 1.7m5.3-4.3l-15.6-15.6 2.2-2.2 15 15.1-1.6 2.7m0 0M793.8 663c-4.1 0-8.2 1.5-10.7 4.1-1 1-2.6 1-3.6 0-1.5-1-1-3.1 0-4.6 2.6-2 6.1-3.6 9.7-4.6l4.6 5.1z m-17.4-16.8c-3.6 1.5-6.6 3.6-9.2 6.1-1 1-1 3.1 0 4.1 1 1 3.1 1 3.6 0 3.1-2.6 6.1-4.6 9.7-6.1l-4.1-4.1z m-12.8-12.8c-3.1 2-6.6 4.6-9.2 7.7-1 1-1 3.1 0 4.1 1 1 2.6 1 3.6 0 3.1-3.1 6.1-5.6 9.7-7.7l-4.1-4.1z m69.1 7.7c-10.2-10.2-24-16.4-38.9-16.4-6.1 0-11.8 1-16.9 2.6l4.6 4.6c3.6-1 7.7-1.5 12.3-1.5 13.8 0 26.1 5.6 35.3 14.3 1 1.5 2.6 1.5 3.6 0 1-0.6 1.5-2.6 0-3.6z m-38.9 1h-2l6.1 6.1c6.7 0.5 13.3 3.6 17.9 8.2 1 1 2.6 1 3.6 0 1.5-1 1.5-3.1 0-4.1-6.7-6.1-15.9-10.2-25.6-10.2z m0 32.7c-3.1 0-5.6 2.6-5.6 5.6 0 3.1 2.6 5.6 5.6 5.6 3.1 0 5.6-2.6 5.6-5.6 0-3.5-2.5-5.6-5.6-5.6z m15.4-9.7L804 660l-12.3-12.3-5.1-5.1-13.8-13.8-3.1-3.1c-1.5-1-3.1-1-4.1 0-1 1-1 3.1 0 4.1l41.9 41.9c1 1 3.1 1 4.1 0 1-1 1-3.1 0-4.1l-2.4-2.5z m0 0" fill="#FFFFFF" p-id="70534"></path><path d="M268.1 731.6l22.6-22.6c2.8-2.8 2.8-7.4 0-10.2-2.8-2.8-7.4-2.8-10.3 0l-22.6 22.6-22.6-22.6c-2.8-2.8-7.4-2.8-10.3 0-2.8 2.8-2.8 7.4 0 10.2l22.6 22.5-22.6 22.6c-2.8 2.8-2.8 7.4 0 10.2 1.4 1.4 3.2 2.1 5.1 2.1 1.9 0 3.8-0.8 5.1-2.1l22.6-22.5 22.6 22.6c1.4 1.4 3.2 2.1 5.1 2.1 1.9 0 3.8-0.8 5.1-2.1 2.8-2.8 2.8-7.4 0-10.2l-22.4-22.6z m0 0" fill="#FFFFFF" p-id="70535"></path></svg>